<svg width="120" height="64" viewBox="0 0 190 64" fill="none" xmlns="http://www.w3.org/2000/svg">
<path d="M99.2733 27.3686L4.7273 27.3686C2.11783 27.3686 0 25.3251 0 22.8072C0 20.2892 2.11783 18.2457 4.7273 18.2457L99.2733 18.2457C101.883 18.2457 104.001 20.2892 104.001 22.8072C104.001 25.3251 101.883 27.3686 99.2733 27.3686Z" fill="white"/>
<path d="M137.092 27.3686L118.182 27.3686C115.573 27.3686 113.455 25.3251 113.455 22.8072C113.455 20.2892 115.573 18.2457 118.182 18.2457L137.092 18.2457C139.701 18.2457 141.819 20.2892 141.819 22.8072C141.819 25.3251 139.701 27.3686 137.092 27.3686Z" fill="white"/>
<path d="M184.365 45.6143L89.8187 45.6143C87.2092 45.6143 85.0914 43.5708 85.0914 41.0529C85.0914 38.5349 87.2092 36.4914 89.8187 36.4914L184.365 36.4914C186.974 36.4914 189.092 38.5349 189.092 41.0529C189.092 43.5708 186.984 45.6143 184.365 45.6143Z" fill="white"/>
<path d="M70.9094 45.6143L61.4548 45.6143C58.8454 45.6143 56.7275 43.5708 56.7275 41.0529C56.7275 38.5349 58.8454 36.4914 61.4548 36.4914L70.9094 36.4914C73.5189 36.4914 75.6367 38.5349 75.6367 41.0529C75.6367 43.5708 73.5189 45.6143 70.9094 45.6143Z" fill="white"/>
<path d="M42.262 45.6143L23.6365 45.6143C21.027 45.6143 18.9092 43.5708 18.9092 41.0529C18.9092 38.5349 21.027 36.4914 23.6365 36.4914L42.262 36.4914C44.8715 36.4914 46.9893 38.5349 46.9893 41.0529C46.9893 43.5708 44.8715 45.6143 42.262 45.6143Z" fill="white"/>
<path d="M127.637 9.12286L80.3641 9.12286C77.7546 9.12286 75.6368 7.07934 75.6368 4.56143C75.6368 2.04352 77.7546 0 80.3641 0L127.637 0C130.246 0 132.364 2.04352 132.364 4.56143C132.364 7.07934 130.256 9.12286 127.637 9.12286Z" fill="white"/>
<path d="M99.2733 63.86L80.3641 63.86C77.7546 63.86 75.6368 61.8165 75.6368 59.2986C75.6368 56.7807 77.7546 54.7372 80.3641 54.7372L99.2733 54.7372C101.883 54.7372 104.001 56.7807 104.001 59.2986C104.001 61.8165 101.883 63.86 99.2733 63.86Z" fill="white"/>
</svg>
